<mxfile host="app.diagrams.net" modified="2022-01-11T12:57:10.323Z" agent="5.0 (Macintosh; Intel Mac OS X 10_15_7) AppleWebKit/537.36 (KHTML, like Gecko) Chrome/96.0.4664.110 Safari/537.36" etag="qgaidLGRKGVI5yXlkieW" version="16.1.0" type="github">
  <diagram id="6neTJCmSSpo0eoz5XbZR" name="第 1 页">
    <mxGraphModel dx="1042" dy="552" grid="1" gridSize="10" guides="1" tooltips="1" connect="1" arrows="1" fold="1" page="1" pageScale="1" pageWidth="827" pageHeight="1169" background="#ffffff" math="0" shadow="0">
      <root>
        <mxCell id="0" />
        <mxCell id="1" parent="0" />
        <mxCell id="xZv_cBOEG-XOUm4c2Ou7-1" value="&lt;font style=&quot;font-size: 14px&quot; face=&quot;Comic Sans MS&quot;&gt;1&lt;/font&gt;" style="rounded=0;whiteSpace=wrap;html=1;fillColor=#dae8fc;strokeColor=#6c8ebf;shadow=1;" vertex="1" parent="1">
          <mxGeometry x="160" y="160" width="40" height="40" as="geometry" />
        </mxCell>
        <mxCell id="xZv_cBOEG-XOUm4c2Ou7-2" value="&lt;font style=&quot;font-size: 14px&quot; face=&quot;Comic Sans MS&quot;&gt;2&lt;/font&gt;" style="rounded=0;whiteSpace=wrap;html=1;fillColor=#dae8fc;strokeColor=#6c8ebf;shadow=1;" vertex="1" parent="1">
          <mxGeometry x="200" y="160" width="40" height="40" as="geometry" />
        </mxCell>
        <mxCell id="xZv_cBOEG-XOUm4c2Ou7-3" value="&lt;font style=&quot;font-size: 14px&quot; face=&quot;Comic Sans MS&quot;&gt;3&lt;/font&gt;" style="rounded=0;whiteSpace=wrap;html=1;fillColor=#dae8fc;strokeColor=#6c8ebf;shadow=1;" vertex="1" parent="1">
          <mxGeometry x="240" y="160" width="40" height="40" as="geometry" />
        </mxCell>
        <mxCell id="xZv_cBOEG-XOUm4c2Ou7-4" value="&lt;font style=&quot;font-size: 14px&quot; face=&quot;Comic Sans MS&quot;&gt;0&lt;/font&gt;" style="rounded=0;whiteSpace=wrap;html=1;fillColor=#f5f5f5;strokeColor=#666666;shadow=1;fontColor=#333333;" vertex="1" parent="1">
          <mxGeometry x="280" y="160" width="40" height="40" as="geometry" />
        </mxCell>
        <mxCell id="xZv_cBOEG-XOUm4c2Ou7-5" value="&lt;font style=&quot;font-size: 14px&quot; face=&quot;Comic Sans MS&quot;&gt;0&lt;/font&gt;" style="rounded=0;whiteSpace=wrap;html=1;fillColor=#f5f5f5;strokeColor=#666666;shadow=1;fontColor=#333333;" vertex="1" parent="1">
          <mxGeometry x="320" y="160" width="40" height="40" as="geometry" />
        </mxCell>
        <mxCell id="xZv_cBOEG-XOUm4c2Ou7-6" value="&lt;font style=&quot;font-size: 14px&quot; face=&quot;Comic Sans MS&quot;&gt;0&lt;/font&gt;" style="rounded=0;whiteSpace=wrap;html=1;fillColor=#f5f5f5;strokeColor=#666666;shadow=1;fontColor=#333333;" vertex="1" parent="1">
          <mxGeometry x="360" y="160" width="40" height="40" as="geometry" />
        </mxCell>
        <mxCell id="xZv_cBOEG-XOUm4c2Ou7-7" value="&lt;div class=&quot;okr-block-clipboard&quot;&gt;&lt;/div&gt;&lt;div&gt;nums1&lt;/div&gt;" style="text;html=1;strokeColor=none;fillColor=none;align=center;verticalAlign=middle;whiteSpace=wrap;rounded=0;shadow=1;fontFamily=Comic Sans MS;fontSize=14;" vertex="1" parent="1">
          <mxGeometry x="240" y="120" width="80" height="40" as="geometry" />
        </mxCell>
        <mxCell id="xZv_cBOEG-XOUm4c2Ou7-8" value="&lt;font style=&quot;font-size: 14px&quot; face=&quot;Comic Sans MS&quot;&gt;2&lt;/font&gt;" style="rounded=0;whiteSpace=wrap;html=1;fillColor=#d5e8d4;strokeColor=#82b366;shadow=1;" vertex="1" parent="1">
          <mxGeometry x="440" y="160" width="40" height="40" as="geometry" />
        </mxCell>
        <mxCell id="xZv_cBOEG-XOUm4c2Ou7-9" value="&lt;font style=&quot;font-size: 14px&quot; face=&quot;Comic Sans MS&quot;&gt;5&lt;/font&gt;" style="rounded=0;whiteSpace=wrap;html=1;fillColor=#d5e8d4;strokeColor=#82b366;shadow=1;" vertex="1" parent="1">
          <mxGeometry x="480" y="160" width="40" height="40" as="geometry" />
        </mxCell>
        <mxCell id="xZv_cBOEG-XOUm4c2Ou7-10" value="&lt;font style=&quot;font-size: 14px&quot; face=&quot;Comic Sans MS&quot;&gt;6&lt;/font&gt;" style="rounded=0;whiteSpace=wrap;html=1;fillColor=#d5e8d4;strokeColor=#82b366;shadow=1;" vertex="1" parent="1">
          <mxGeometry x="520" y="160" width="40" height="40" as="geometry" />
        </mxCell>
        <mxCell id="xZv_cBOEG-XOUm4c2Ou7-14" value="&lt;div class=&quot;okr-block-clipboard&quot;&gt;&lt;/div&gt;&lt;div&gt;nums2&lt;/div&gt;" style="text;html=1;strokeColor=none;fillColor=none;align=center;verticalAlign=middle;whiteSpace=wrap;rounded=0;shadow=1;fontFamily=Comic Sans MS;fontSize=14;" vertex="1" parent="1">
          <mxGeometry x="440" y="120" width="120" height="40" as="geometry" />
        </mxCell>
        <mxCell id="xZv_cBOEG-XOUm4c2Ou7-15" value="&lt;font style=&quot;font-size: 14px&quot; face=&quot;Comic Sans MS&quot;&gt;1&lt;/font&gt;" style="rounded=0;whiteSpace=wrap;html=1;fillColor=#dae8fc;strokeColor=#6c8ebf;shadow=1;" vertex="1" parent="1">
          <mxGeometry x="240" y="320" width="40" height="40" as="geometry" />
        </mxCell>
        <mxCell id="xZv_cBOEG-XOUm4c2Ou7-16" value="&lt;font style=&quot;font-size: 14px&quot; face=&quot;Comic Sans MS&quot;&gt;2&lt;/font&gt;" style="rounded=0;whiteSpace=wrap;html=1;fillColor=#dae8fc;strokeColor=#6c8ebf;shadow=1;" vertex="1" parent="1">
          <mxGeometry x="280" y="320" width="40" height="40" as="geometry" />
        </mxCell>
        <mxCell id="xZv_cBOEG-XOUm4c2Ou7-17" value="&lt;font style=&quot;font-size: 14px&quot; face=&quot;Comic Sans MS&quot;&gt;3&lt;/font&gt;" style="rounded=0;whiteSpace=wrap;html=1;fillColor=#dae8fc;strokeColor=#6c8ebf;shadow=1;" vertex="1" parent="1">
          <mxGeometry x="320" y="320" width="40" height="40" as="geometry" />
        </mxCell>
        <mxCell id="xZv_cBOEG-XOUm4c2Ou7-21" value="&lt;font style=&quot;font-size: 14px&quot; face=&quot;Comic Sans MS&quot;&gt;2&lt;/font&gt;" style="rounded=0;whiteSpace=wrap;html=1;fillColor=#d5e8d4;strokeColor=#82b366;shadow=1;" vertex="1" parent="1">
          <mxGeometry x="360" y="320" width="40" height="40" as="geometry" />
        </mxCell>
        <mxCell id="xZv_cBOEG-XOUm4c2Ou7-22" value="&lt;font style=&quot;font-size: 14px&quot; face=&quot;Comic Sans MS&quot;&gt;5&lt;/font&gt;" style="rounded=0;whiteSpace=wrap;html=1;fillColor=#d5e8d4;strokeColor=#82b366;shadow=1;" vertex="1" parent="1">
          <mxGeometry x="400" y="320" width="40" height="40" as="geometry" />
        </mxCell>
        <mxCell id="xZv_cBOEG-XOUm4c2Ou7-23" value="&lt;font style=&quot;font-size: 14px&quot; face=&quot;Comic Sans MS&quot;&gt;6&lt;/font&gt;" style="rounded=0;whiteSpace=wrap;html=1;fillColor=#d5e8d4;strokeColor=#82b366;shadow=1;" vertex="1" parent="1">
          <mxGeometry x="440" y="320" width="40" height="40" as="geometry" />
        </mxCell>
        <mxCell id="xZv_cBOEG-XOUm4c2Ou7-24" value="&lt;font style=&quot;font-size: 14px&quot; face=&quot;Comic Sans MS&quot;&gt;1&lt;/font&gt;" style="rounded=0;whiteSpace=wrap;html=1;fillColor=#f8cecc;strokeColor=#b85450;shadow=1;" vertex="1" parent="1">
          <mxGeometry x="240" y="420" width="40" height="40" as="geometry" />
        </mxCell>
        <mxCell id="xZv_cBOEG-XOUm4c2Ou7-25" value="&lt;font style=&quot;font-size: 14px&quot; face=&quot;Comic Sans MS&quot;&gt;2&lt;/font&gt;" style="rounded=0;whiteSpace=wrap;html=1;fillColor=#f8cecc;strokeColor=#b85450;shadow=1;" vertex="1" parent="1">
          <mxGeometry x="280" y="420" width="40" height="40" as="geometry" />
        </mxCell>
        <mxCell id="xZv_cBOEG-XOUm4c2Ou7-26" value="&lt;font style=&quot;font-size: 14px&quot; face=&quot;Comic Sans MS&quot;&gt;2&lt;/font&gt;" style="rounded=0;whiteSpace=wrap;html=1;fillColor=#f8cecc;strokeColor=#b85450;shadow=1;" vertex="1" parent="1">
          <mxGeometry x="320" y="420" width="40" height="40" as="geometry" />
        </mxCell>
        <mxCell id="xZv_cBOEG-XOUm4c2Ou7-27" value="&lt;font style=&quot;font-size: 14px&quot; face=&quot;Comic Sans MS&quot;&gt;3&lt;/font&gt;" style="rounded=0;whiteSpace=wrap;html=1;fillColor=#f8cecc;strokeColor=#b85450;shadow=1;" vertex="1" parent="1">
          <mxGeometry x="360" y="420" width="40" height="40" as="geometry" />
        </mxCell>
        <mxCell id="xZv_cBOEG-XOUm4c2Ou7-28" value="&lt;font style=&quot;font-size: 14px&quot; face=&quot;Comic Sans MS&quot;&gt;5&lt;/font&gt;" style="rounded=0;whiteSpace=wrap;html=1;fillColor=#f8cecc;strokeColor=#b85450;shadow=1;" vertex="1" parent="1">
          <mxGeometry x="400" y="420" width="40" height="40" as="geometry" />
        </mxCell>
        <mxCell id="xZv_cBOEG-XOUm4c2Ou7-29" value="&lt;font style=&quot;font-size: 14px&quot; face=&quot;Comic Sans MS&quot;&gt;6&lt;/font&gt;" style="rounded=0;whiteSpace=wrap;html=1;fillColor=#f8cecc;strokeColor=#b85450;shadow=1;" vertex="1" parent="1">
          <mxGeometry x="440" y="420" width="40" height="40" as="geometry" />
        </mxCell>
        <mxCell id="xZv_cBOEG-XOUm4c2Ou7-32" value="排序后" style="text;html=1;strokeColor=none;fillColor=none;align=center;verticalAlign=middle;whiteSpace=wrap;rounded=0;shadow=1;fontFamily=Comic Sans MS;fontSize=14;" vertex="1" parent="1">
          <mxGeometry x="320" y="380" width="80" height="40" as="geometry" />
        </mxCell>
        <mxCell id="xZv_cBOEG-XOUm4c2Ou7-33" value="预留空间" style="text;html=1;strokeColor=none;fillColor=none;align=center;verticalAlign=middle;whiteSpace=wrap;rounded=0;shadow=1;fontFamily=Comic Sans MS;fontSize=14;" vertex="1" parent="1">
          <mxGeometry x="280" y="220" width="120" height="30" as="geometry" />
        </mxCell>
        <mxCell id="xZv_cBOEG-XOUm4c2Ou7-34" value="" style="shape=curlyBracket;whiteSpace=wrap;html=1;rounded=1;flipH=1;shadow=1;fontFamily=Comic Sans MS;fontSize=14;rotation=90;" vertex="1" parent="1">
          <mxGeometry x="330" y="160" width="20" height="110" as="geometry" />
        </mxCell>
        <mxCell id="xZv_cBOEG-XOUm4c2Ou7-35" value="合并数组后" style="text;html=1;strokeColor=none;fillColor=none;align=center;verticalAlign=middle;whiteSpace=wrap;rounded=0;shadow=1;fontFamily=Comic Sans MS;fontSize=14;" vertex="1" parent="1">
          <mxGeometry x="320" y="280" width="80" height="40" as="geometry" />
        </mxCell>
        <mxCell id="xZv_cBOEG-XOUm4c2Ou7-36" value="&lt;font style=&quot;font-size: 14px&quot; face=&quot;Comic Sans MS&quot;&gt;1&lt;/font&gt;" style="rounded=0;whiteSpace=wrap;html=1;fillColor=#dae8fc;strokeColor=#6c8ebf;shadow=1;" vertex="1" parent="1">
          <mxGeometry x="160" y="640" width="40" height="40" as="geometry" />
        </mxCell>
        <mxCell id="xZv_cBOEG-XOUm4c2Ou7-37" value="&lt;font style=&quot;font-size: 14px&quot; face=&quot;Comic Sans MS&quot;&gt;2&lt;/font&gt;" style="rounded=0;whiteSpace=wrap;html=1;fillColor=#dae8fc;strokeColor=#6c8ebf;shadow=1;" vertex="1" parent="1">
          <mxGeometry x="200" y="640" width="40" height="40" as="geometry" />
        </mxCell>
        <mxCell id="xZv_cBOEG-XOUm4c2Ou7-50" style="edgeStyle=orthogonalEdgeStyle;rounded=0;orthogonalLoop=1;jettySize=auto;html=1;exitX=0.5;exitY=1;exitDx=0;exitDy=0;entryX=0.5;entryY=0;entryDx=0;entryDy=0;fontFamily=Comic Sans MS;fontSize=14;" edge="1" parent="1" source="xZv_cBOEG-XOUm4c2Ou7-38" target="xZv_cBOEG-XOUm4c2Ou7-49">
          <mxGeometry relative="1" as="geometry" />
        </mxCell>
        <mxCell id="xZv_cBOEG-XOUm4c2Ou7-38" value="&lt;font style=&quot;font-size: 14px&quot; face=&quot;Comic Sans MS&quot;&gt;3&lt;/font&gt;" style="rounded=0;whiteSpace=wrap;html=1;fillColor=#dae8fc;strokeColor=#6c8ebf;shadow=1;" vertex="1" parent="1">
          <mxGeometry x="240" y="640" width="40" height="40" as="geometry" />
        </mxCell>
        <mxCell id="xZv_cBOEG-XOUm4c2Ou7-39" value="&lt;font style=&quot;font-size: 14px&quot; face=&quot;Comic Sans MS&quot;&gt;0&lt;/font&gt;" style="rounded=0;whiteSpace=wrap;html=1;fillColor=#f5f5f5;strokeColor=#666666;shadow=1;fontColor=#333333;" vertex="1" parent="1">
          <mxGeometry x="280" y="640" width="40" height="40" as="geometry" />
        </mxCell>
        <mxCell id="xZv_cBOEG-XOUm4c2Ou7-40" value="&lt;font style=&quot;font-size: 14px&quot; face=&quot;Comic Sans MS&quot;&gt;0&lt;/font&gt;" style="rounded=0;whiteSpace=wrap;html=1;fillColor=#f5f5f5;strokeColor=#666666;shadow=1;fontColor=#333333;" vertex="1" parent="1">
          <mxGeometry x="320" y="640" width="40" height="40" as="geometry" />
        </mxCell>
        <mxCell id="xZv_cBOEG-XOUm4c2Ou7-41" value="&lt;font style=&quot;font-size: 14px&quot; face=&quot;Comic Sans MS&quot;&gt;6&lt;/font&gt;" style="rounded=0;whiteSpace=wrap;html=1;fillColor=#f5f5f5;strokeColor=#666666;shadow=1;fontColor=#333333;" vertex="1" parent="1">
          <mxGeometry x="360" y="640" width="40" height="40" as="geometry" />
        </mxCell>
        <mxCell id="xZv_cBOEG-XOUm4c2Ou7-42" value="&lt;div class=&quot;okr-block-clipboard&quot;&gt;&lt;/div&gt;&lt;div&gt;nums1&lt;/div&gt;" style="text;html=1;strokeColor=none;fillColor=none;align=center;verticalAlign=middle;whiteSpace=wrap;rounded=0;shadow=1;fontFamily=Comic Sans MS;fontSize=14;" vertex="1" parent="1">
          <mxGeometry x="80" y="640" width="80" height="40" as="geometry" />
        </mxCell>
        <mxCell id="xZv_cBOEG-XOUm4c2Ou7-43" value="&lt;font style=&quot;font-size: 14px&quot; face=&quot;Comic Sans MS&quot;&gt;2&lt;/font&gt;" style="rounded=0;whiteSpace=wrap;html=1;fillColor=#d5e8d4;strokeColor=#82b366;shadow=1;" vertex="1" parent="1">
          <mxGeometry x="160" y="760" width="40" height="40" as="geometry" />
        </mxCell>
        <mxCell id="xZv_cBOEG-XOUm4c2Ou7-44" value="&lt;font style=&quot;font-size: 14px&quot; face=&quot;Comic Sans MS&quot;&gt;5&lt;/font&gt;" style="rounded=0;whiteSpace=wrap;html=1;fillColor=#d5e8d4;strokeColor=#82b366;shadow=1;" vertex="1" parent="1">
          <mxGeometry x="200" y="760" width="40" height="40" as="geometry" />
        </mxCell>
        <mxCell id="xZv_cBOEG-XOUm4c2Ou7-51" style="edgeStyle=orthogonalEdgeStyle;rounded=0;orthogonalLoop=1;jettySize=auto;html=1;exitX=0.5;exitY=0;exitDx=0;exitDy=0;entryX=0.5;entryY=1;entryDx=0;entryDy=0;fontFamily=Comic Sans MS;fontSize=14;" edge="1" parent="1" source="xZv_cBOEG-XOUm4c2Ou7-45" target="xZv_cBOEG-XOUm4c2Ou7-49">
          <mxGeometry relative="1" as="geometry" />
        </mxCell>
        <mxCell id="xZv_cBOEG-XOUm4c2Ou7-45" value="&lt;font style=&quot;font-size: 14px&quot; face=&quot;Comic Sans MS&quot;&gt;6&lt;/font&gt;" style="rounded=0;whiteSpace=wrap;html=1;fillColor=#d5e8d4;strokeColor=#82b366;shadow=1;" vertex="1" parent="1">
          <mxGeometry x="240" y="760" width="40" height="40" as="geometry" />
        </mxCell>
        <mxCell id="xZv_cBOEG-XOUm4c2Ou7-46" value="&lt;div class=&quot;okr-block-clipboard&quot;&gt;&lt;/div&gt;&lt;div&gt;nums2&lt;/div&gt;" style="text;html=1;strokeColor=none;fillColor=none;align=center;verticalAlign=middle;whiteSpace=wrap;rounded=0;shadow=1;fontFamily=Comic Sans MS;fontSize=14;" vertex="1" parent="1">
          <mxGeometry x="80" y="760" width="80" height="40" as="geometry" />
        </mxCell>
        <mxCell id="xZv_cBOEG-XOUm4c2Ou7-52" style="edgeStyle=orthogonalEdgeStyle;rounded=0;orthogonalLoop=1;jettySize=auto;html=1;exitX=1;exitY=0.5;exitDx=0;exitDy=0;entryX=0.5;entryY=1;entryDx=0;entryDy=0;fontFamily=Comic Sans MS;fontSize=14;" edge="1" parent="1" source="xZv_cBOEG-XOUm4c2Ou7-49" target="xZv_cBOEG-XOUm4c2Ou7-41">
          <mxGeometry relative="1" as="geometry" />
        </mxCell>
        <mxCell id="xZv_cBOEG-XOUm4c2Ou7-49" value="选出较大的一个" style="rounded=0;whiteSpace=wrap;html=1;shadow=1;fontFamily=Comic Sans MS;fontSize=14;" vertex="1" parent="1">
          <mxGeometry x="220" y="700" width="80" height="40" as="geometry" />
        </mxCell>
      </root>
    </mxGraphModel>
  </diagram>
</mxfile>
